<svg id="Capa_1" enable-background="new 0 0 512 512" height="512" viewBox="0 0 512 512" width="512" xmlns="http://www.w3.org/2000/svg"><g><path d="m469.592 181.673-28.978-7.765-7.765 28.978 28.978 7.765c8.002 2.144 16.227-2.605 18.371-10.607s-2.604-16.227-10.606-18.371z" fill="#98d3f3"/><path d="m416.559 89.817c-8.002-2.144-16.227 2.605-18.371 10.607l-7.764 28.977 28.978 7.765 7.765-28.978c2.143-8.002-2.606-16.227-10.608-18.371z" fill="#98d3f3"/><path d="m471.207 131.75c-4.142-7.174-13.316-9.633-20.49-5.49l-25.981 15 15 25.981 25.981-15c7.174-4.143 9.632-13.317 5.49-20.491z" fill="#98d3f3"/><path d="m46.283 359.76c-7.174 4.142-9.633 13.316-5.49 20.49s13.316 9.633 20.49 5.49l25.981-15-15-25.981z" fill="#adf2f5"/><path d="m121.577 382.599-28.978-7.765-7.765 28.978c-2.144 8.002 2.605 16.227 10.607 18.371s16.227-2.605 18.371-10.607z" fill="#adf2f5"/><path d="m50.173 301.35c-8.002-2.144-16.227 2.605-18.371 10.607s2.605 16.227 10.607 18.371l28.978 7.765 7.765-28.978z" fill="#adf2f5"/><path d="m319.64 33.86c-5.858-5.858-15.355-5.858-21.213 0l-21.213 21.213 21.213 21.213 21.213-21.213c5.857-5.857 5.857-15.355 0-21.213z" fill="#98d3f3"/><path d="m192.36 55.074 21.213 21.213 21.214-21.213-21.213-21.214c-5.858-5.858-15.355-5.858-21.213 0s-5.858 15.356-.001 21.214z" fill="#adf2f5"/><path d="m241 22.5v30h30v-30c0-8.284-6.716-15-15-15s-15 6.716-15 15z" fill="#98d3f3"/><path d="m271 489.5v-30h-30v30c0 8.284 6.716 15 15 15s15-6.716 15-15z" fill="#98d3f3"/><path d="m319.64 456.926-21.213-21.213-21.213 21.213 21.213 21.213c5.858 5.858 15.355 5.858 21.213 0 5.857-5.857 5.857-15.355 0-21.213z" fill="#98d3f3"/><g fill="#adf2f5"><path d="m234.787 456.926-21.213-21.213-21.213 21.213c-5.858 5.858-5.858 15.355 0 21.213s15.355 5.858 21.213 0z"/><path d="m92.599 137.166 28.978-7.765-7.765-28.978c-2.144-8.002-10.369-12.751-18.371-10.607s-12.751 10.369-10.607 18.371z"/><path d="m42.408 181.672c-8.002 2.144-12.751 10.369-10.607 18.371s10.369 12.751 18.371 10.607l28.977-7.764-7.764-28.978z"/><path d="m87.264 141.26-25.981-15c-7.174-4.142-16.348-1.684-20.49 5.49s-1.684 16.348 5.49 20.49l25.981 15z"/></g><path d="m424.736 370.74 25.981 15c7.174 4.142 16.348 1.684 20.49-5.49s1.684-16.348-5.49-20.49l-25.981-15z" fill="#98d3f3"/><path d="m469.592 330.327c8.002-2.144 12.751-10.369 10.607-18.371s-10.369-12.751-18.371-10.607l-28.978 7.765 7.765 28.978z" fill="#98d3f3"/><path d="m419.401 374.834-28.978 7.765 7.765 28.978c2.144 8.002 10.369 12.751 18.371 10.607s12.751-10.369 10.607-18.371z" fill="#98d3f3"/><path d="m298.426 456.926c5.858-5.858 5.858-15.355 0-21.213l-27.426-27.426v-32.574l6.213 6.213c5.858 5.858 15.355 5.858 21.213 0s5.858-15.355 0-21.213l-27.426-27.426v-51.306l44.432 25.653 10.039 37.465c2.144 8.002 10.369 12.751 18.371 10.607s12.751-10.369 10.607-18.371l-2.274-8.487 28.21 16.287 10.039 37.465c2.144 8.002 10.369 12.751 18.371 10.607s12.751-10.369 10.607-18.371l-2.274-8.487 7.61 4.393c7.174 4.142 16.348 1.684 20.49-5.49s1.684-16.348-5.49-20.49l-7.61-4.393 8.488-2.274c8.002-2.144 12.751-10.369 10.607-18.371s-10.369-12.751-18.371-10.607l-37.465 10.039-28.21-16.287 8.488-2.274c8.002-2.144 12.751-10.369 10.607-18.371s-10.369-12.751-18.371-10.607l-37.465 10.039-44.436-25.656 44.432-25.653 37.465 10.039c8.002 2.144 16.227-2.605 18.371-10.607s-2.605-16.227-10.607-18.371l-8.488-2.274 28.21-16.287 37.465 10.039c8.002 2.144 16.227-2.605 18.371-10.607s-2.605-16.227-10.607-18.371l-8.487-2.274 7.61-4.393c7.174-4.142 9.633-13.316 5.49-20.49-4.142-7.174-13.316-9.633-20.49-5.49l-7.61 4.393 2.274-8.487c2.144-8.002-2.605-16.227-10.607-18.371s-16.227 2.604-18.371 10.606l-10.039 37.466-28.21 16.287 2.274-8.487c2.144-8.002-2.605-16.227-10.607-18.371s-16.227 2.605-18.371 10.607l-10.039 37.465-44.429 25.65v-51.306l27.426-27.426c5.858-5.858 5.858-15.356 0-21.213-5.858-5.858-15.355-5.858-21.213 0l-6.213 6.213v-32.574l27.426-27.426c5.858-5.858 5.858-15.355 0-21.213s-15.355-5.858-21.213 0l-6.213 6.213v-8.787c0-8.284-6.716-15-15-15s-15 6.716-15 15v8.787l-6.213-6.213c-5.858-5.858-15.355-5.858-21.213 0s-5.858 15.355 0 21.213l27.426 27.426v32.574l-6.213-6.213c-5.858-5.858-15.355-5.858-21.213 0s-5.858 15.355 0 21.213l27.426 27.426v51.306l-44.432-25.653-10.039-37.465c-2.144-8.002-10.369-12.751-18.371-10.607s-12.751 10.369-10.607 18.371l2.274 8.487-28.21-16.287-10.039-37.465c-2.144-8.002-10.369-12.751-18.371-10.607s-12.751 10.369-10.607 18.371l2.274 8.487-7.61-4.393c-7.174-4.142-16.348-1.684-20.49 5.49s-1.684 16.348 5.49 20.49l7.609 4.393-8.487 2.274c-8.002 2.144-12.751 10.369-10.607 18.371s10.369 12.751 18.371 10.607l37.466-10.039 28.21 16.287-8.487 2.274c-8.002 2.144-12.751 10.369-10.607 18.371s10.369 12.751 18.371 10.607l37.465-10.039 44.434 25.656-44.432 25.653-37.465-10.039c-8.002-2.144-16.227 2.605-18.371 10.607s2.605 16.227 10.607 18.371l8.487 2.274-28.21 16.287-37.465-10.039c-8.002-2.144-16.227 2.605-18.371 10.607s2.605 16.227 10.607 18.371l8.487 2.274-7.609 4.393c-7.174 4.142-9.633 13.316-5.49 20.49 4.142 7.174 13.316 9.633 20.49 5.49l7.61-4.393-2.274 8.487c-2.144 8.002 2.605 16.227 10.607 18.371s16.227-2.605 18.371-10.607l10.039-37.465 28.21-16.287-2.274 8.487c-2.144 8.002 2.605 16.227 10.607 18.371s16.227-2.605 18.371-10.607l10.039-37.465 44.429-25.65v51.306l-27.426 27.426c-5.858 5.858-5.858 15.355 0 21.213s15.355 5.858 21.213 0l6.213-6.213v32.574l-27.426 27.426c-5.858 5.858-5.858 15.355 0 21.213s15.355 5.858 21.213 0l6.213-6.213v8.787c0 8.284 6.716 15 15 15s15-6.716 15-15v-8.787l6.213 6.213c5.858 5.858 15.356 5.858 21.213 0z" fill="#d6f9fa"/><path d="m459.886 294.105-63.442 17-11.577-6.684c2.584-1.844 4.765-4.237 6.399-7.067 3.005-5.205 3.803-11.269 2.247-17.073-1.555-5.805-5.277-10.657-10.482-13.662-5.206-3.005-11.269-3.803-17.074-2.248l-34.464 9.235-30.493-17.606 30.492-17.604 34.464 9.235c5.807 1.555 11.87.757 17.074-2.248 5.205-3.005 8.928-7.857 10.482-13.662 1.556-5.805.758-11.869-2.247-17.074-1.635-2.831-3.815-5.224-6.399-7.067l11.577-6.684 63.442 17c5.807 1.555 11.87.757 17.074-2.248 5.205-3.005 8.928-7.857 10.482-13.662 1.556-5.806.758-11.869-2.247-17.074s-7.857-8.928-13.662-10.483l-19.976-5.352 17.909-10.34c5.205-3.005 8.928-7.857 10.483-13.662s.757-11.869-2.248-17.073c-3.005-5.205-7.856-8.928-13.662-10.484-5.806-1.554-11.868-.756-17.073 2.248l-17.909 10.34 5.352-19.975c3.212-11.983-3.925-24.346-15.909-27.558-11.982-3.21-24.346 3.926-27.557 15.911l-16.999 63.442-11.588 6.69c-.888-9.064-7.271-17.072-16.573-19.564-11.982-3.21-24.346 3.926-27.557 15.91l-9.234 34.464-30.491 17.603v-35.209l25.23-25.23c8.771-8.772 8.771-23.047-.001-31.82-6.81-6.81-16.937-8.333-25.229-4.57v-13.38l46.443-46.443c8.771-8.773 8.771-23.047 0-31.82-4.25-4.25-9.9-6.59-15.91-6.59s-11.66 2.341-15.91 6.59l-14.623 14.623v-20.68c0-12.407-10.094-22.5-22.5-22.5s-22.5 10.093-22.5 22.5v20.68l-14.623-14.623c-4.25-4.25-9.9-6.59-15.91-6.59s-11.66 2.341-15.91 6.59c-8.771 8.773-8.771 23.047 0 31.82l46.443 46.442v13.381c-8.296-3.764-18.42-2.24-25.23 4.57-8.771 8.772-8.771 23.047 0 31.819l25.23 25.229v35.209l-30.492-17.604-9.234-34.465c-3.211-11.983-15.574-19.12-27.556-15.91-9.304 2.493-15.687 10.5-16.574 19.564l-11.587-6.69-17-63.442c-3.211-11.985-15.581-19.118-27.557-15.91-11.984 3.211-19.121 15.574-15.909 27.557l5.352 19.976-17.909-10.34c-5.206-3.005-11.27-3.803-17.073-2.248-5.806 1.556-10.657 5.279-13.662 10.483-3.005 5.205-3.804 11.269-2.248 17.074s5.278 10.657 10.483 13.662l17.909 10.34-19.976 5.352c-5.805 1.556-10.657 5.279-13.662 10.483-3.005 5.205-3.803 11.269-2.247 17.073 1.555 5.806 5.277 10.658 10.482 13.663s11.267 3.802 17.074 2.248l63.441-17 11.588 6.69c-7.406 5.301-11.149 14.833-8.656 24.135 3.211 11.983 15.573 19.12 27.557 15.91l34.464-9.235 30.492 17.607-30.492 17.604-34.464-9.235c-11.982-3.211-24.346 3.926-27.557 15.91-1.556 5.805-.758 11.869 2.247 17.074 1.635 2.831 3.815 5.224 6.399 7.067l-11.577 6.684-19.976-5.353c-4.003-1.074-8.114 1.303-9.186 5.304s1.302 8.113 5.303 9.186l22.977 6.156c1.921.514 3.968.246 5.691-.75l28.209-16.287c2.627-1.517 4.082-4.466 3.686-7.474-.396-3.007-2.564-5.48-5.494-6.265l-8.487-2.275c-1.936-.519-3.553-1.759-4.555-3.494-1.001-1.735-1.268-3.756-.749-5.691 1.07-3.995 5.191-6.376 9.186-5.303l37.465 10.039c1.92.515 3.969.246 5.691-.75l44.433-25.653c2.32-1.34 3.75-3.815 3.75-6.495s-1.43-5.155-3.75-6.495l-44.433-25.653c-1.724-.995-3.771-1.264-5.691-.75l-37.465 10.039c-3.995 1.071-8.115-1.31-9.186-5.303-1.07-3.995 1.309-8.115 5.304-9.186l8.487-2.274c2.93-.785 5.099-3.258 5.494-6.266.396-3.007-1.059-5.958-3.686-7.474l-28.21-16.287c-1.724-.995-3.771-1.263-5.691-.75l-66.442 17.803c-1.935.519-3.956.252-5.691-.749-1.734-1.002-2.976-2.619-3.494-4.555-.519-1.935-.252-3.956.749-5.691 1.002-1.735 2.619-2.976 4.555-3.494l37.465-10.039c2.93-.785 5.099-3.258 5.494-6.266.396-3.007-1.059-5.958-3.686-7.474l-33.59-19.394c-1.735-1.002-2.977-2.619-3.495-4.554s-.252-3.956.75-5.691c1.002-1.734 2.619-2.976 4.554-3.494 1.937-.52 3.956-.252 5.691.749l33.59 19.394c2.626 1.517 5.909 1.301 8.315-.545 2.407-1.847 3.464-4.961 2.679-7.891l-10.038-37.466c-1.07-3.995 1.309-8.115 5.304-9.186 3.994-1.074 8.114 1.309 9.186 5.303l17.804 66.443c.515 1.921 1.771 3.559 3.494 4.554l28.209 16.287c2.626 1.517 5.908 1.302 8.315-.545s3.464-4.961 2.679-7.892l-2.274-8.487c-1.069-3.995 1.31-8.115 5.305-9.186 3.991-1.074 8.114 1.309 9.186 5.303l10.038 37.465c.515 1.921 1.771 3.56 3.494 4.554l44.433 25.653c2.32 1.34 5.18 1.34 7.5 0s3.75-3.815 3.75-6.495v-51.306c0-1.989-.79-3.897-2.196-5.303l-27.427-27.426c-2.924-2.924-2.924-7.682-.001-10.606 2.925-2.924 7.683-2.925 10.607 0l6.213 6.213c2.146 2.145 5.37 2.787 8.174 1.626 2.803-1.161 4.63-3.896 4.63-6.929v-32.574c0-1.989-.79-3.897-2.196-5.303l-48.64-48.639c-2.925-2.924-2.925-7.683 0-10.607 1.416-1.417 3.3-2.197 5.303-2.197s3.887.78 5.303 2.197l27.427 27.426c2.146 2.145 5.37 2.786 8.174 1.626 2.803-1.161 4.63-3.896 4.63-6.929v-38.783c0-4.136 3.364-7.5 7.5-7.5s7.5 3.364 7.5 7.5v38.787c0 3.034 1.827 5.768 4.63 6.929s6.028.519 8.174-1.626l27.427-27.426c1.416-1.417 3.3-2.197 5.303-2.197s3.887.78 5.303 2.197c2.925 2.924 2.925 7.683 0 10.607l-48.64 48.64c-1.406 1.406-2.196 3.314-2.196 5.303v32.573c0 3.034 1.827 5.768 4.63 6.929s6.028.519 8.174-1.626l6.212-6.212c2.925-2.924 7.683-2.925 10.607 0 2.924 2.924 2.924 7.682 0 10.606l-27.427 27.427c-1.406 1.406-2.196 3.314-2.196 5.303v51.306c0 2.68 1.43 5.155 3.75 6.495s5.18 1.34 7.5 0l44.433-25.653c1.723-.995 2.979-2.633 3.494-4.554l10.038-37.465c1.071-3.995 5.187-6.376 9.187-5.303 3.994 1.07 6.373 5.191 5.304 9.185l-2.274 8.487c-.785 2.93.271 6.045 2.679 7.892 2.405 1.846 5.688 2.063 8.315.545l28.21-16.287c1.723-.995 2.979-2.633 3.494-4.554l17.803-66.442c1.07-3.994 5.186-6.375 9.186-5.304 3.995 1.071 6.374 5.191 5.304 9.187l-10.038 37.465c-.785 2.93.271 6.044 2.679 7.891 2.406 1.846 5.688 2.063 8.315.545l33.59-19.393c1.733-1.001 3.754-1.269 5.691-.749 1.935.518 3.552 1.759 4.554 3.495 1.002 1.735 1.268 3.756.75 5.69-.519 1.935-1.76 3.552-3.495 4.554l-33.59 19.394c-2.627 1.517-4.082 4.467-3.686 7.474s2.564 5.48 5.494 6.266l37.465 10.039c1.936.519 3.553 1.759 4.555 3.494 1.001 1.735 1.268 3.756.749 5.692-.519 1.935-1.76 3.552-3.494 4.554-1.736 1.001-3.758 1.268-5.691.749l-66.443-17.803c-1.92-.513-3.967-.245-5.691.75l-28.209 16.287c-2.627 1.517-4.082 4.466-3.686 7.474.396 3.007 2.564 5.48 5.494 6.265l8.487 2.275c1.936.519 3.553 1.759 4.555 3.494 1.001 1.735 1.268 3.756.749 5.692-.519 1.935-1.76 3.552-3.494 4.553-1.736 1-3.758 1.268-5.691.749l-37.465-10.039c-1.919-.513-3.967-.246-5.691.75l-44.433 25.653c-2.32 1.34-3.75 3.815-3.75 6.495s1.43 5.155 3.75 6.495l44.433 25.653c1.724.995 3.771 1.263 5.691.75l37.465-10.039c1.934-.52 3.955-.253 5.691.749 1.734 1.001 2.976 2.619 3.494 4.554.519 1.935.252 3.956-.749 5.691-1.002 1.735-2.619 2.976-4.555 3.495l-8.487 2.274c-2.93.785-5.099 3.258-5.494 6.265-.396 3.008 1.059 5.958 3.686 7.474l28.209 16.287c1.724.995 3.771 1.264 5.691.75l66.443-17.803c3.992-1.074 8.114 1.309 9.186 5.303.519 1.935.252 3.956-.749 5.691-1.002 1.735-2.619 2.976-4.555 3.494l-37.465 10.039c-2.93.785-5.099 3.258-5.494 6.266-.396 3.007 1.059 5.958 3.686 7.474l33.59 19.394c1.735 1.002 2.977 2.619 3.495 4.554s.252 3.956-.75 5.691c-1.002 1.734-2.619 2.976-4.554 3.494-1.938.52-3.958.252-5.691-.749l-33.59-19.393c-2.627-1.517-5.909-1.301-8.315.545-2.407 1.847-3.464 4.961-2.679 7.891l10.038 37.465c.519 1.935.252 3.956-.749 5.691-1.002 1.735-2.619 2.976-4.555 3.495-3.994 1.068-8.114-1.309-9.186-5.303l-17.803-66.443c-.515-1.921-1.771-3.56-3.494-4.554l-28.21-16.287c-2.626-1.517-5.909-1.301-8.315.545-2.407 1.847-3.464 4.961-2.679 7.892l2.274 8.487c1.069 3.995-1.31 8.116-5.303 9.186-3.996 1.07-8.116-1.308-9.188-5.303l-10.038-37.465c-.515-1.921-1.771-3.56-3.494-4.554l-44.433-25.653c-2.32-1.34-5.18-1.34-7.5 0s-3.75 3.815-3.75 6.495v51.306c0 1.989.79 3.897 2.196 5.303l27.427 27.427c2.924 2.924 2.924 7.682.001 10.606-2.925 2.924-7.683 2.925-10.607 0l-6.213-6.213c-2.145-2.145-5.372-2.787-8.174-1.626-2.803 1.161-4.63 3.896-4.63 6.929v32.574c0 1.989.79 3.897 2.196 5.303l48.64 48.64c2.925 2.924 2.925 7.683.001 10.606-1.417 1.417-3.301 2.197-5.304 2.197-2.004 0-3.887-.78-5.303-2.197l-27.427-27.427c-2.146-2.146-5.372-2.788-8.174-1.626-2.803 1.161-4.63 3.896-4.63 6.929v38.782c0 4.136-3.364 7.5-7.5 7.5s-7.5-3.364-7.5-7.5v-38.787c0-3.034-1.827-5.768-4.63-6.929s-6.028-.519-8.174 1.626l-27.427 27.426c-1.416 1.417-3.299 2.197-5.303 2.197-2.003 0-3.887-.78-5.303-2.197-2.925-2.924-2.925-7.683 0-10.607l48.64-48.64c1.406-1.406 2.196-3.314 2.196-5.303v-32.573c0-3.034-1.827-5.768-4.63-6.929s-6.028-.519-8.174 1.626l-6.212 6.212c-2.925 2.924-7.683 2.925-10.607 0-2.924-2.924-2.924-7.683 0-10.607l27.427-27.426c1.406-1.406 2.196-3.314 2.196-5.303v-51.306c0-2.68-1.43-5.155-3.75-6.495s-5.18-1.34-7.5 0l-44.433 25.653c-1.723.995-2.979 2.633-3.494 4.554l-10.038 37.465c-1.071 3.995-5.193 6.375-9.186 5.303-3.995-1.07-6.374-5.191-5.305-9.185l2.274-8.488c.785-2.93-.271-6.045-2.679-7.892-2.406-1.846-5.688-2.062-8.315-.545l-28.209 16.287c-1.723.995-2.979 2.633-3.494 4.554l-17.804 66.443c-1.071 3.995-5.19 6.374-9.186 5.303-1.936-.518-3.553-1.759-4.555-3.494-1.001-1.735-1.268-3.756-.749-5.691l10.038-37.465c.785-2.93-.271-6.044-2.679-7.891-2.406-1.846-5.689-2.062-8.315-.545l-33.59 19.394c-1.735 1.001-3.755 1.269-5.691.749-1.935-.518-3.552-1.759-4.554-3.495-1.002-1.735-1.268-3.756-.75-5.69.519-1.935 1.76-3.552 3.495-4.554l33.59-19.394c2.627-1.517 4.082-4.467 3.686-7.474s-2.564-5.48-5.494-6.266l-37.466-10.038c-3.995-1.07-6.374-5.191-5.304-9.186.519-1.935 1.76-3.552 3.494-4.554 1.735-1.001 3.757-1.269 5.691-.749l14.489 3.882c4.004 1.071 8.113-1.302 9.186-5.304 1.072-4.001-1.302-8.113-5.303-9.186l-14.489-3.882c-5.806-1.554-11.869-.756-17.074 2.248-5.205 3.005-8.928 7.857-10.482 13.662-3.212 11.983 3.926 24.346 15.909 27.558l19.976 5.352-17.909 10.34c-5.205 3.005-8.928 7.857-10.483 13.662s-.758 11.869 2.247 17.074 7.856 8.928 13.662 10.484c5.806 1.555 11.87.757 17.073-2.248l17.909-10.34-5.352 19.976c-1.556 5.805-.758 11.869 2.247 17.074s7.857 8.928 13.662 10.483c5.807 1.559 11.87.758 17.073-2.247 5.205-3.005 8.928-7.857 10.483-13.662l17-63.442 11.587-6.69c.889 9.064 7.271 17.072 16.573 19.564 11.982 3.209 24.346-3.926 27.557-15.91l9.234-34.464 30.492-17.604v35.209l-25.23 25.23c-8.771 8.773-8.771 23.047.001 31.82 6.811 6.81 16.936 8.333 25.229 4.57v13.38l-46.443 46.443c-8.771 8.773-8.771 23.047.001 31.82 4.25 4.25 9.899 6.59 15.909 6.59 6.011 0 11.66-2.341 15.91-6.59l14.625-14.626v20.68c0 12.407 10.094 22.5 22.5 22.5s22.5-10.093 22.5-22.5v-20.681l14.623 14.624c4.25 4.25 9.899 6.59 15.91 6.59 6.01 0 11.659-2.34 15.91-6.59 8.771-8.773 8.771-23.047 0-31.82l-46.443-46.443v-13.38c8.295 3.763 18.42 2.239 25.23-4.57 8.771-8.772 8.771-23.047 0-31.819l-25.23-25.23v-35.209l30.492 17.604 9.234 34.465c3.211 11.983 15.57 19.119 27.558 15.91 9.302-2.493 15.685-10.5 16.572-19.565l11.588 6.69 16.999 63.442c1.556 5.805 5.278 10.657 10.483 13.662s11.268 3.803 17.073 2.248c5.805-1.556 10.657-5.279 13.662-10.483 3.005-5.205 3.803-11.269 2.247-17.073l-5.352-19.976 17.909 10.34c5.205 3.005 11.269 3.803 17.073 2.248 5.806-1.556 10.657-5.279 13.662-10.483 3.005-5.205 3.804-11.269 2.248-17.074s-5.278-10.657-10.483-13.662l-17.909-10.34 19.976-5.353c5.805-1.556 10.657-5.278 13.662-10.483s3.803-11.268 2.247-17.074c-3.21-11.984-15.575-19.12-27.555-15.91z"/></g></svg>